PathFileType	3	(X/Y/Z)	D:\Jess\PFP\Labelled\PA23\20251014\SRRun01.trc
DataRate	CameraRate	NumFrames	NumMarkers	Units	OrigDataRate	OrigDataStartFrame	OrigNumFrames
250.0	250.0	5	37	mm	250.0	36250	2501
Frame#	Time	C7			T10			CLAV			LSHO			RSHO			LASIS			RASIS			LPSIS			RPSIS			LILCR			RILCR			LGTR			LTHI			LLTHI			LLEP			LMEP			LPSH			LLSH			LDSH			LLMAL			LMMAL			LTOE			L5TH			LHEE			RGTR			RTHI			RLTHI			RLEP			RMEP			RPSH			RLSH			RDSH			RLMAL			RMMAL			RTOE			R5TH			RHEE			
		X1	Y1	Z1	X2	Y2	Z2	X3	Y3	Z3	X4	Y4	Z4	X5	Y5	Z5	X6	Y6	Z6	X7	Y7	Z7	X8	Y8	Z8	X9	Y9	Z9	X10	Y10	Z10	X11	Y11	Z11	X12	Y12	Z12	X13	Y13	Z13	X14	Y14	Z14	X15	Y15	Z15	X16	Y16	Z16	X17	Y17	Z17	X18	Y18	Z18	X19	Y19	Z19	X20	Y20	Z20	X21	Y21	Z21	X22	Y22	Z22	X23	Y23	Z23	X24	Y24	Z24	X25	Y25	Z25	X26	Y26	Z26	X27	Y27	Z27	X28	Y28	Z28	X29	Y29	Z29	X30	Y30	Z30	X31	Y31	Z31	X32	Y32	Z32	X33	Y33	Z33	X34	Y34	Z34	X35	Y35	Z35	X36	Y36	Z36	X37	Y37	Z37	

1251	144.996	867.4988175319946	1640.547999362025	-823.9953300691612	838.7520272636795	1388.163517524744	-745.7322090297681	852.736515444828	1517.620353241337	-987.3739503589655	675.9432776522314	1615.987581897325	-892.0677147759413	1026.549756856023	1592.898016077876	-885.8630722479598	709.1670343930232	1093.920612066873	-930.5046690814277	974.081384489179	1103.764552041184	-931.4807825657795	812.0800453466378	1135.347855090492	-750.6084898629475	866.0405444718052	1136.25100157888	-746.469466751741	682.9879474668488	1184.462997886241	-857.9975054279142	1006.281769124325	1187.843172213921	-854.0637431949508	663.5567020571201	942.2299202246047	-853.8674860650447	711.6243323200897	803.5570669118383	-1019.660594314106	658.7597118653996	663.0808332631192	-967.8762275842465	669.3002019307654	555.5999339309211	-981.6127073997503	nan	nan	nan	708.3745311337849	456.9447183671888	-919.7020411078419	656.9188044154118	528.7134820828452	-791.4461866469219	710.8645647807101	444.4336349950694	-676.6994670473207	680.1264034240317	482.6367820664514	-526.4513977444484	nan	nan	nan	651.1437795199544	308.7700946853849	-497.3166563672039	623.2795214955934	361.4654960880423	-460.0412214619718	751.1921928368266	537.6592942634055	-481.8326905694166	1032.065294176074	957.0349266915455	-847.0971383302285	941.6705188840106	799.8364436846687	-978.2051399158154	967.510699586283	682.602396416688	-887.2701418302591	929.612340219869	522.6398572275001	-901.6417169496142	nan	nan	nan	864.3964643027039	405.9241813221301	-910.745991876882	918.0683828369819	315.8350036368126	-780.4696129626864	839.0096385228652	211.1514704317309	-767.9428545650484	872.5814048860765	119.6451881216802	-659.886356936627	nan	nan	nan	850.957178797716	66.85623244716338	-816.3519169769932	902.3830296562203	44.40942521812479	-769.3804317796933	824.9198654267149	81.52298691556939	-564.782030891158	
1252	145	868.0427995024484	1642.639664149657	-824.0000365098203	839.8468607284219	1390.121435856877	-746.1443868042246	851.8665091658827	1520.216543273757	-987.4401534282422	676.0014216949853	1618.457049513614	-890.2768985445143	1026.435232025397	1595.733336210548	-887.2847804871579	708.989730603945	1096.568805454019	-930.3606118212601	973.8721734455505	1104.682757766584	-931.6895137572615	812.4180868823192	1137.949004439716	-750.5939626430568	866.4382964096895	1138.594577494291	-746.5985557177318	683.0977473871965	1186.806933584086	-858.1731754089877	1006.312912492569	1189.578680286646	-855.605697082487	662.8641616633946	945.3924939686312	-853.9237741599402	711.5800484659122	808.9008779109031	-1021.855005249363	659.4701224708419	667.4333618237011	-972.7391151291035	670.359199011738	560.1370662712227	-988.3550190654337	nan	nan	nan	709.8851003209733	460.569003888123	-928.2379204055956	657.6294248638195	528.9780803958871	-798.7137888209171	711.975598259272	442.6335736609961	-685.4155317562592	680.5692066811004	477.0783532916516	-534.352432478694	nan	nan	nan	653.5690654632746	302.2206062071442	-509.95746959038	625.0899686632416	353.3463497055011	-471.3712323345785	750.7504469628832	531.6551774504859	-487.9989323786498	1031.538927206101	958.0847566650074	-845.2610610596003	940.3917208813562	799.1113564813705	-973.3630077218396	966.8885146947679	683.300195949788	-880.4354898686987	929.1492522016724	523.0234569494073	-891.6902533837083	nan	nan	nan	864.0898378327471	405.9225348550569	-900.1208810428058	917.9929624331137	316.7691538876181	-769.3440913229721	839.0299345130196	211.7965324944644	-756.3769271655972	872.8307067623865	120.4982514720854	-647.9761069438622	nan	nan	nan	850.9207459638585	66.60309428831908	-804.197439385642	902.3675927742277	44.40540258291556	-757.1355417521679	825.2493209276436	82.8086788269966	-552.8051353044652	
1253	145.004	868.5759181511021	1644.9082934377	-824.0090869719138	840.9924261578602	1392.237224282014	-746.6269155575465	850.9846861891392	1523.028338359085	-987.5197155162637	676.0843359663469	1621.101524568091	-888.4923438813245	1026.297566003359	1598.807515543236	-888.7189473767867	708.8776040035798	1099.401939743289	-930.3423644304479	973.7248186481845	1105.747525824205	-931.9776415413053	812.7269139076436	1140.712824325634	-750.6745970192837	866.8046364929585	1141.083287667874	-746.8320559240472	683.2173459446858	1189.288431579077	-858.447554101797	1006.38123872043	1191.355373550731	-857.2668254767456	662.1805897117432	948.7913865848021	-854.2466905620333	711.6358185633701	814.493910044018	-1023.981014898127	660.2645502689104	672.0121543564384	-977.4232983055325	671.5054598198682	564.9055415377744	-994.8313751036757	nan	nan	nan	711.4425698902771	464.362535126874	-936.6152962368107	658.4151724775127	529.2849407602395	-805.7826312913178	713.1173272664934	440.7514702727686	-694.0974765083758	681.0452448534933	471.2364636006327	-542.2896258893751	nan	nan	nan	656.0884613017936	295.5065787258303	-522.800935867073	626.9877796641841	344.9372201303261	-482.943768862798	750.3179573023168	525.2946948476712	-494.129531693628	1031.003627239115	959.3199304420929	-843.4819980141752	939.0459220120983	798.6835127044114	-968.488801537667	966.2414484409626	684.3255242081283	-873.5456153447808	928.6559422133968	523.7980056592294	-881.6862614845179	nan	nan	nan	863.6689411398087	406.2998954108769	-889.4229573185696	917.9139372215228	317.9903342600328	-758.2512706696697	839.0440998606405	212.7027329268759	-744.8353466101395	873.1166405800321	121.5435566862293	-636.1360923709994	nan	nan	nan	850.8750736936513	66.35393893322373	-792.0689559901742	902.3462519604968	44.44179536016347	-744.9118823622846	825.6281477820503	84.35283391512189	-540.8958379669431	
1254	145.008	869.0983671906788	1647.339792799293	-824.021386712748	842.1900455589321	1394.499198467611	-747.1763039728735	850.0924966491867	1526.041473193408	-987.6100996744269	676.1976686121496	1623.908893869563	-886.7161023107483	1026.135718791455	1602.102740959127	-890.1606034007787	708.8293805090865	1102.41843998449	-930.4492538739672	973.6369478781432	1106.95400348483	-932.3441564163436	813.0077756345257	1143.632208400033	-750.8505726814074	867.1415317678237	1143.71056255927	-747.1698339822356	683.3473609218055	1191.921090100594	-858.8038155338786	1006.483695816046	1193.169685297965	-859.0322897024428	661.507841841296	952.41919925843	-854.8383617699234	711.7999997207077	820.2962420047046	-1026.044596895224	661.1312357061774	676.7950822301937	-981.9271741406342	672.7310654699476	569.8676390773695	-1001.032069718847	nan	nan	nan	713.0331340747947	468.2914655636204	-944.8177147058611	659.2747644262097	529.620570278973	-812.6537712616957	714.286386061608	438.7834902492176	-702.7493751023818	681.5621087189742	465.1224190287259	-550.282370435246	nan	nan	nan	658.683638319195	288.6608456140167	-535.8640531719755	628.9614976609928	336.2743191723693	-494.7768413803144	749.9098499601159	518.582029749729	-500.2468786583639	1030.460235777608	960.7357695811812	-841.7719283266857	937.6450708103828	798.538853128638	-963.5975887856766	965.5734278563722	685.6758403612655	-866.6031140344576	928.1453949306522	524.9458819211253	-871.653743661472	nan	nan	nan	863.1468692713661	407.0473558611935	-878.6733744382275	917.8369190410253	319.4976588636109	-747.2072154577905	839.0564786939656	213.8755871459017	-733.3387812349164	873.4403362842365	122.7968616464596	-624.3831866879491	nan	nan	nan	850.8208531837793	66.10406029487524	-779.9708251143928	902.3202770220726	44.51807565092171	-732.7148758966124	826.053001871426	86.1800426635812	-529.0684739905145	
1255	145.012	869.6102900975787	1649.919957934947	-824.0365241785553	843.4403911069236	1396.895692105624	-747.7885480417661	849.1913442186154	1529.241053590091	-987.7089598245821	676.3462086742012	1626.8667004937	-884.9504918826716	1025.948678176464	1605.600197778039	-891.6051814839153	708.8420118415693	1105.61763339484	-930.6787636917719	973.6034638525377	1108.297847631663	-932.7882181267489	813.2630412876	1146.699991781163	-751.1210966112507	867.4522387359488	1146.469901219147	-747.6106806012373	683.4886887551627	1194.721393884429	-859.2282019848424	1006.615174971523	1195.02247450296	-860.8896538323653	660.8477583645259	956.2679241053964	-855.6945791917544	712.0781547376257	826.2676267264058	-1028.052222686807	662.0584301484539	681.7599141937602	-986.2516176949437	674.028438531542	574.9862014831409	-1006.949409652595	nan	nan	nan	714.6452389917229	472.3229199655838	-952.8305539225576	660.2065523246613	529.9697441298293	-819.3306989333164	715.480265189809	436.725712857045	-711.3761976072273	682.1271741660223	458.7478224685005	-558.3503526882649	nan	nan	nan	661.335623340367	281.7161766508574	-549.1614098995703	630.9993692030638	327.3962636310371	-506.8849901341039	749.5419468562935	511.5217143254579	-506.3759457014799	1029.909342946703	962.3268345832676	-840.142228024565	936.1998809917199	798.6629498367429	-958.7050843969879	964.8914722617895	687.3471400722109	-859.6158501746569	927.6330656593933	526.4499290952269	-861.6185223961304	nan	nan	nan	862.5433948265359	408.155129378949	-867.8965176989059	917.7698977855739	321.2907773914077	-736.2275039505409	839.0741952684187	215.3197896869905	-721.9109045888737	873.8026705211979	124.2726576342652	-612.7363814515933	nan	nan	nan	850.7593553070833	65.84837532562048	-767.9080370045317	902.2914247940274	44.63364003581577	-720.5504965513517	826.5190550400956	88.31347530692429	-517.3400043097718	
